<svg width="32" height="32" viewBox="0 0 32 32" fill="none" xmlns="http://www.w3.org/2000/svg">
  <rect width="32" height="32" rx="8" fill="#0066CC"/>
  <path d="M16.917 8.00001C19.1217 8.00001 21.2065 8.87974 22.7381 10.4113C24.2697 11.9429 25.1494 14.0277 25.1494 16.2324C25.1494 18.4371 24.2697 20.5219 22.7381 22.0535C21.2065 23.5851 19.1217 24.4648 16.917 24.4648H10.8511C10.4227 24.4648 9.94005 24.2593 9.5783 23.8975C9.21655 23.5358 9.01099 23.0531 9.01099 22.6247V9.84012C9.01099 9.41173 9.21655 8.92905 9.5783 8.5673C9.94005 8.20555 10.4227 8 10.8511 8H16.917V8.00001Z" fill="white"/>
  <path d="M16.917 13.5119C17.7741 13.5119 18.5959 13.8545 19.1951 14.4537C19.7943 15.0529 20.1369 15.8747 20.1369 16.7318C20.1369 17.5889 19.7943 18.4107 19.1951 19.0099C18.5959 19.6091 17.7741 19.9517 16.917 19.9517H14.0631V13.5119H16.917Z" fill="#0066CC"/>
</svg>